<svg xmlns="http://www.w3.org/2000/svg" version="1.1" viewBox="-5.0 -10.0 110.0 135.0"><path d="m43 66.336c0.26562 0 0.51953-0.10547 0.70703-0.29297 0.19141-0.1875 0.29297-0.44531 0.29297-0.71094v-4.5234h-12v4.5234c0 0.26562 0.10156 0.52344 0.29297 0.71094 0.1875 0.1875 0.44141 0.29297 0.70703 0.29297zm1-6.0352h6c0.26562 0 0.51953-0.10547 0.70703-0.29297s0.29297-0.44141 0.29297-0.70703v-38.211c0-0.26562-0.10156-0.51953-0.28906-0.71094-0.1875-0.1875-0.44531-0.29297-0.71094-0.29297h-2v-13.07c0.003906-1.1094-0.89062-2.0117-2-2.0156h-16c-1.1055 0.003906-2 0.90234-2 2.0117v13.074h-2c-0.26562 0-0.52344 0.10547-0.71094 0.29687-0.1875 0.1875-0.28906 0.44141-0.28906 0.71094v38.207c0 0.26562 0.10547 0.51953 0.29297 0.70703s0.44141 0.29297 0.70703 0.29297zm-14-53.285h16v13.07h-16zm14.5 1.0039h-13c-0.27734 0-0.5 0.22266-0.5 0.5v5.0312c0 0.13281 0.050781 0.25781 0.14453 0.35156s0.22266 0.14844 0.35547 0.14844h13c0.13281 0 0.26172-0.054687 0.35547-0.14844s0.14453-0.21875 0.14453-0.35156v-5.0273c0-0.13281-0.050781-0.26172-0.14453-0.35547s-0.22266-0.14844-0.35547-0.14844zm-11 5.0273h-0.5v-4.0195h0.5v4.0234zm1.3555 0h-0.5v-4.0195h0.5v4.0234zm1.3555 0h-0.5l0.003906-4.0195h0.5v4.0234zm1.3555 0h-0.5l0.003906-4.0195h0.5v4.0234zm1.3555 0h-0.5l0.007813-4.0195h0.5v4.0234zm1.3555 0h-0.5l0.007812-4.0195h0.5v4.0234zm1.3555 0h-0.5l0.007813-4.0195h0.5v4.0234zm1.3555 0h-0.48828v-4.0195h0.5v4.0234zm21.512 52.789c-5.8125 0.019531-10.508 4.7422-10.5 10.555v6.0352c0 3.5898-2.9102 6.5-6.5 6.5s-6.5-2.9102-6.5-6.5v-15.586h-6v15.586c0 6.8047 5.4453 12.359 12.25 12.496s12.469-5.1953 12.738-11.996l0.011719-6.5352c0-2.4844 2.0156-4.5 4.5-4.5s4.5 2.0156 4.5 4.5v18.602h6v-18.602c0.007812-5.8125-4.6875-10.535-10.5-10.555z" fill-rule="evenodd"/></svg>